<?xml version="1.0" encoding="utf-8"?>
<!-- Generator: Adobe Illustrator 16.2.1, SVG Export Plug-In . SVG Version: 6.00 Build 0)  -->
<!DOCTYPE svg PUBLIC "-//W3C//DTD SVG 1.1//EN" "http://www.w3.org/Graphics/SVG/1.1/DTD/svg11.dtd">
<svg version="1.1" id="Isolation_Mode" xmlns="http://www.w3.org/2000/svg" xmlns:xlink="http://www.w3.org/1999/xlink" x="0px"
	 y="0px" width="156.463px" height="56.229px" viewBox="0 0 156.463 56.229" enable-background="new 0 0 156.463 56.229"
	 xml:space="preserve">
<g>
	<g>
		<path fill="#212121" d="M3.878,39.506c-1.253,0-2.763-0.236-3.878-0.69l0.274-1.368c1.193,0.372,2.447,0.566,3.641,0.566
			c2.098,0,2.527-0.553,2.527-2.038c0-1.763-0.021-1.919-2.706-2.522c-3.15-0.707-3.524-1.314-3.524-4.023
			c0-2.266,0.941-3.365,4.174-3.365c1.137,0,2.484,0.156,3.528,0.433l-0.139,1.429c-1.038-0.232-2.271-0.369-3.351-0.369
			c-2.137,0-2.524,0.428-2.524,1.939c0,1.801,0,1.878,2.586,2.523c3.464,0.864,3.638,1.372,3.638,3.916
			C8.125,38.209,7.46,39.506,3.878,39.506z"/>
		<path fill="#212121" d="M15.902,39.146c-0.585,0.216-1.293,0.359-1.996,0.359c-1.606,0-2.369-0.588-2.369-2.175V31.14H9.853v-1.37
			h1.685v-2.352l1.644-0.233v2.585h2.698l-0.129,1.37h-2.569v5.914c0,0.704,0.097,1.062,0.977,1.062
			c0.451,0,0.924-0.084,1.532-0.238L15.902,39.146z"/>
		<path fill="#212121" d="M19.703,29.77v7.284c0,0.628,0.312,0.881,0.919,0.881c0.706,0,2.175-0.426,3.194-0.961V29.77h1.643v9.535
			h-1.333l-0.154-0.82c-1.06,0.508-2.7,1.021-3.84,1.021c-1.526,0-2.08-0.964-2.08-2.432V29.77H19.703z"/>
		<path fill="#212121" d="M28.239,32.688c0-1.902,0.868-3.116,3.096-3.116c0.843,0,1.959,0.138,2.722,0.294v-3.993l1.653-0.234
			v13.666h-1.396l-0.135-0.86c-0.787,0.626-1.904,1.062-3.156,1.062c-1.882,0-2.785-1-2.785-2.92V32.688z M34.057,31.312
			c-0.879-0.173-1.959-0.288-2.626-0.288c-1.094,0-1.546,0.507-1.546,1.664v3.897c0,0.979,0.317,1.467,1.47,1.467
			c0.938,0,2-0.507,2.702-1.142V31.312z"/>
		<path fill="#212121" d="M41.21,39.305h-0.688l-3.096-9.535h1.625l2.608,8.225l2.643-8.225h1.626l-3.151,9.535l-1.356,3.862h-1.543
			L41.21,39.305z"/>
		<path fill="#212121" d="M53.706,39.305h-1.685V26.26h1.685V39.305z"/>
		<path fill="#212121" d="M59.756,27.768h-3.896V26.26h9.479v1.508h-3.9v11.537h-1.683V27.768z"/>
		<path fill="#212121" d="M71.509,28.24v-2.367h1.644v2.367H71.509z M71.509,39.305V29.77h1.644v9.535H71.509z"/>
		<path fill="#212121" d="M82.045,39.305V32.02c0-0.623-0.315-0.88-0.923-0.88c-0.705,0-2.177,0.427-3.188,0.96v7.205h-1.648V29.77
			h1.33l0.16,0.824c1.054-0.511,2.704-1.021,3.838-1.021c1.527,0,2.074,0.959,2.074,2.429v7.304H82.045z"/>
		<path fill="#212121" d="M91.034,37.052h1.68v2.253h-1.68V37.052z"/>
		<path fill="#212121" d="M99.376,38.092c0.94,0,1.981-0.176,3.016-0.451l0.217,1.315c-0.903,0.332-2.174,0.55-3.366,0.55
			c-2.826,0-3.786-1.354-3.786-3.511v-2.861c0-1.978,0.903-3.562,3.742-3.562c2.82,0,3.586,1.625,3.586,3.603v2.003h-5.68v0.798
			C97.105,37.485,97.515,38.092,99.376,38.092z M97.105,33.804h4.093v-0.788c0-1.326-0.452-2.072-1.999-2.072
			c-1.548,0-2.094,0.746-2.094,2.072V33.804z"/>
		<path fill="#212121" d="M108.798,38.092c0.943,0,1.979-0.176,3.016-0.451l0.215,1.315c-0.899,0.332-2.173,0.55-3.366,0.55
			c-2.824,0-3.782-1.354-3.782-3.511v-2.861c0-1.978,0.901-3.562,3.741-3.562c2.819,0,3.585,1.625,3.585,3.603v2.003h-5.681v0.798
			C106.526,37.485,106.935,38.092,108.798,38.092z M106.526,33.804h4.093v-0.788c0-1.326-0.45-2.072-1.997-2.072
			c-1.545,0-2.096,0.746-2.096,2.072V33.804z"/>
	</g>
	<g>
		<polygon fill="#1D70B7" points="112.054,5.664 115.946,4.623 114.9,0.731 117.639,0 118.68,3.889 122.571,2.847 123.304,5.586 
			119.412,6.625 120.455,10.517 117.715,11.251 116.676,7.361 112.789,8.403 		"/>
		<polygon fill="#1D70B7" points="115.553,18.758 119.445,17.715 118.405,13.83 121.138,13.098 122.186,16.986 126.073,15.943 
			126.807,18.678 122.917,19.721 123.958,23.609 121.223,24.348 120.18,20.458 116.289,21.501 		"/>
		<polygon fill="#1D70B7" points="128.649,15.251 132.539,14.207 131.495,10.32 134.233,9.582 135.273,13.473 139.162,12.43 
			139.896,15.168 136.009,16.212 137.051,20.1 134.309,20.834 133.272,16.943 129.378,17.984 		"/>
		<path fill="#1D70B7" d="M121.357,7.764l1.951,7.26l7.275-1.951l-1.946-7.26L121.357,7.764z M124.817,9.753l1.818-0.489
			l0.492,1.823l-1.825,0.489L124.817,9.753z"/>
		<path fill="#1D70B7" d="M124.87,20.864l1.944,7.261l7.277-1.948l-1.943-7.263L124.87,20.864z M128.328,22.854l1.816-0.49
			l0.492,1.822l-1.822,0.489L128.328,22.854z"/>
		<path fill="#1D70B7" d="M128.382,33.962l1.944,7.261l7.274-1.953l-1.941-7.258L128.382,33.962z M131.835,35.95l1.824-0.484
			l0.484,1.813l-1.82,0.492L131.835,35.95z"/>
		<path fill="#1D70B7" d="M137.925,17.367l1.943,7.259l7.277-1.95l-1.94-7.26L137.925,17.367z M141.388,19.354l1.812-0.487
			l0.492,1.822l-1.823,0.485L141.388,19.354z"/>
		<path fill="#1D70B7" d="M144.979,43.535l1.945,7.262l7.276-1.949l-1.945-7.262L144.979,43.535z M148.436,45.524l1.825-0.484
			l0.485,1.815l-1.821,0.489L148.436,45.524z"/>
		<polygon fill="#1D70B7" points="119.064,31.851 122.953,30.81 121.911,26.92 124.646,26.188 125.692,30.079 129.579,29.034 
			130.313,31.774 126.427,32.815 127.468,36.703 124.727,37.436 123.688,33.552 119.798,34.592 		"/>
		<polygon fill="#1D70B7" points="122.571,44.955 126.463,43.914 125.419,40.032 128.158,39.296 129.198,43.186 133.089,42.14 
			133.823,44.883 129.934,45.918 130.977,49.806 128.233,50.539 127.194,46.656 123.308,47.699 		"/>
		<polygon fill="#1D70B7" points="132.156,28.342 136.047,27.305 135.002,23.414 137.741,22.683 138.787,26.569 142.674,25.527 
			143.409,28.268 139.518,29.304 140.565,33.197 137.827,33.934 136.779,30.04 132.89,31.081 		"/>
		<polygon fill="#1D70B7" points="135.663,41.438 139.553,40.394 138.514,36.508 141.248,35.772 142.292,39.659 146.181,38.623 
			146.915,41.356 143.025,42.4 144.072,46.294 141.331,47.024 140.29,43.131 136.403,44.18 		"/>
		<polygon fill="#1D70B7" points="145.21,24.854 149.1,23.812 148.06,19.923 150.794,19.189 151.842,23.078 155.733,22.038 
			156.463,24.77 152.57,25.818 153.615,29.704 150.878,30.44 149.838,26.551 145.947,27.589 		"/>
		<polygon fill="#1D70B7" points="143.065,53.489 142.02,49.604 144.76,48.867 145.801,52.758 149.692,51.718 150.427,54.452 
			146.531,55.495 143.799,56.229 		"/>
		<polygon fill="#1D70B7" points="148.752,28.502 149.485,31.223 144.934,32.441 146.15,36.981 143.421,37.715 141.474,30.45 		"/>
	</g>
</g>
</svg>
